<svg width="30" height="30" viewBox="0 0 30 30" fill="none" xmlns="http://www.w3.org/2000/svg">
<path d="M15.3867 0.00488281C23.4919 0.210206 29.999 6.84515 29.999 15C29.999 23.2841 23.2839 29.9998 15 30L14.6123 29.9951C6.50724 29.7897 0 23.1548 0 15C1.03079e-06 6.71573 6.71594 0 15 0L15.3867 0.00488281ZM15 0.651367C7.07557 0.651367 0.651368 7.07534 0.651367 15C0.651367 22.9247 7.07557 29.3486 15 29.3486C16.8594 29.3486 18.636 28.9944 20.2666 28.3506C18.825 28.847 17.2781 29.1182 15.668 29.1182C7.99282 29.1181 1.7484 22.9929 1.55469 15.3643L1.5498 15C1.5498 7.20253 7.87071 0.880932 15.668 0.880859C17.2518 0.880859 18.7749 1.141 20.1963 1.62207C18.585 0.99569 16.8328 0.651414 15 0.651367ZM15.668 1.53223C8.23035 1.5323 2.20117 7.56213 2.20117 15C2.2017 22.4374 8.23067 28.4667 15.668 28.4668C17.2948 28.4668 18.8542 28.1779 20.2979 27.6494L20.5732 27.5439C19.2407 27.9949 17.813 28.2402 16.3281 28.2402L15.9863 28.2363C8.83372 28.0552 3.09108 22.1993 3.09082 15.0029C3.09083 7.69217 9.01754 1.76562 16.3281 1.76562L16.6699 1.76953C18.0865 1.80547 19.4475 2.06431 20.7197 2.51172C19.1597 1.87994 17.4545 1.53223 15.668 1.53223ZM16.3281 2.41699C9.37718 2.41699 3.74219 8.05177 3.74219 15.0029C3.74245 21.9539 9.37734 27.5889 16.3281 27.5889C17.9949 27.5888 19.5851 27.2623 21.041 26.6738C19.7741 27.1124 18.4151 27.3545 16.999 27.3545C10.2819 27.3544 4.81657 21.994 4.64746 15.3174L4.64355 14.999C4.64355 8.17507 10.1753 2.64268 16.999 2.64258C18.3762 2.64258 19.6995 2.87132 20.9365 3.28711C19.5093 2.72524 17.9548 2.41703 16.3281 2.41699ZM16.999 3.29395C10.5349 3.29405 5.29492 8.53468 5.29492 14.999C5.29518 21.4631 10.5351 26.703 16.999 26.7031C18.5076 26.7031 19.9482 26.4143 21.2725 25.8945C20.1369 26.2708 18.9239 26.4785 17.6621 26.4785L17.0713 26.4639C11.0088 26.1565 6.18776 21.1429 6.1875 15.0039C6.18751 8.66665 11.325 3.5293 17.6621 3.5293L18.252 3.54395C19.3558 3.59987 20.418 3.81283 21.418 4.15918C20.0542 3.60264 18.5628 3.29395 16.999 3.29395ZM17.6621 4.18066C11.6846 4.18066 6.83887 9.02626 6.83887 15.0039C6.83913 20.9813 11.6848 25.8271 17.6621 25.8271C19.1027 25.8271 20.4763 25.5422 21.7334 25.0312C20.665 25.3936 19.5209 25.5928 18.3301 25.5928C12.6627 25.5926 8.03481 21.1419 7.75098 15.5449L7.7373 15C7.7373 9.14957 12.4798 4.40638 18.3301 4.40625C19.4756 4.40625 20.578 4.59032 21.6113 4.92676C20.3875 4.44673 19.0561 4.1807 17.6621 4.18066ZM18.3301 5.05762C12.8395 5.05775 8.38867 9.50918 8.38867 15C8.38893 20.4906 12.8396 24.9413 18.3301 24.9414C19.639 24.9414 20.8876 24.6853 22.0322 24.2256C21.0767 24.5399 20.0568 24.7138 18.9961 24.7139L18.4961 24.7012C13.3649 24.4411 9.28444 20.1979 9.28418 15.002C9.28419 9.63821 13.6325 5.29004 18.9961 5.29004L19.4961 5.30273C20.3978 5.34849 21.2665 5.51864 22.0869 5.79395C20.9276 5.32034 19.6597 5.05762 18.3301 5.05762ZM18.9961 5.94141C13.9921 5.94141 9.93556 9.99782 9.93555 15.002C9.93581 20.0059 13.9923 24.0625 18.9961 24.0625C20.2367 24.0625 21.4183 23.8107 22.4951 23.3594C21.6044 23.6615 20.6509 23.8281 19.6582 23.8281C14.9339 23.828 11.0764 20.1178 10.8398 15.4521L10.8281 14.998C10.8281 10.1211 14.7815 6.16715 19.6582 6.16699C20.606 6.16699 21.5182 6.31831 22.374 6.59473C21.3298 6.17476 20.1905 5.94143 18.9961 5.94141ZM19.6582 6.81836C15.1411 6.81852 11.4795 10.4807 11.4795 14.998C11.4797 19.5151 15.1413 23.1766 19.6582 23.1768C20.7604 23.1768 21.8109 22.9568 22.7705 22.5615C22.001 22.8097 21.1811 22.9463 20.3291 22.9463L19.9199 22.9355C15.7204 22.7224 12.3809 19.2497 12.3809 14.9971C12.3811 10.6074 15.9395 7.04897 20.3291 7.04883C21.1799 7.04883 21.999 7.18413 22.7676 7.43164C21.8088 7.03719 20.7592 6.81836 19.6582 6.81836ZM20.3291 7.7002C16.2992 7.70034 13.0325 10.967 13.0322 14.9971C13.0322 19.0273 16.299 22.2948 20.3291 22.2949C21.3227 22.2949 22.2694 22.095 23.1328 21.7354C22.4582 21.9493 21.7405 22.0674 20.9951 22.0674L20.6309 22.0586C17.0174 21.8752 14.1197 18.9769 13.9365 15.3633L13.9277 15C13.9277 11.0968 17.092 7.93262 20.9951 7.93262L21.3584 7.94141C21.9922 7.97352 22.6036 8.08996 23.1826 8.27832C22.3061 7.90567 21.3415 7.7002 20.3291 7.7002ZM20.9951 8.58398C17.4517 8.58398 14.5791 11.4564 14.5791 15C14.5794 18.5434 17.4518 21.416 20.9951 21.416C21.872 21.416 22.7074 21.2384 23.4688 20.9199C22.896 21.095 22.2882 21.1904 21.6582 21.1904L21.3398 21.1826C18.0712 21.017 15.4719 18.3137 15.4717 15.0039C15.4717 11.5872 18.2416 8.81738 21.6582 8.81738L21.9766 8.8252C22.5206 8.85279 23.0459 8.95107 23.5439 9.11035C22.7626 8.77172 21.9009 8.58401 20.9951 8.58398ZM21.6582 9.46875C18.6012 9.46875 16.1231 11.9468 16.123 15.0039C16.1233 18.0608 18.6013 20.5391 21.6582 20.5391C22.4498 20.539 23.2018 20.3706 23.8828 20.0713C23.3904 20.2222 22.868 20.3047 22.3262 20.3047C19.488 20.3045 17.1703 18.0755 17.0283 15.2725L17.0215 15C17.0215 12.0701 19.3964 9.69455 22.3262 9.69434C22.8497 9.69434 23.3553 9.77082 23.833 9.91211C23.1654 9.62655 22.4303 9.46877 21.6582 9.46875ZM22.3262 10.3457C19.7561 10.3459 17.6729 12.4297 17.6729 15C17.6731 17.57 19.7562 19.6531 22.3262 19.6533C23.0068 19.6533 23.6526 19.5057 24.2354 19.2432C23.84 19.359 23.4221 19.4228 22.9893 19.4229L22.7617 19.417C20.4244 19.2986 18.5657 17.3657 18.5654 14.999C18.5655 12.5558 20.5461 10.5752 22.9893 10.5752L23.2168 10.5811C23.5635 10.5986 23.8996 10.6561 24.2207 10.749C23.6418 10.4906 23.001 10.3457 22.3262 10.3457ZM22.9893 11.2266C20.9057 11.2266 19.2168 12.9154 19.2168 14.999C19.2171 17.0824 20.9059 18.7715 22.9893 18.7715C23.5678 18.7715 24.1155 18.6399 24.6055 18.4072C24.3026 18.4915 23.984 18.5391 23.6543 18.5391C21.7593 18.5388 20.2122 17.0502 20.1172 15.1787L20.1123 14.9971C20.1123 13.0407 21.6981 11.4543 23.6543 11.4541C23.9732 11.4541 24.2822 11.4962 24.5762 11.5752C24.0938 11.3512 23.5561 11.2266 22.9893 11.2266ZM23.6543 12.1055C22.0577 12.1057 20.7637 13.4003 20.7637 14.9971C20.7642 16.5934 22.058 17.8875 23.6543 17.8877C24.112 17.8877 24.543 17.7772 24.9277 17.5879C24.7324 17.6335 24.5295 17.6611 24.3203 17.6611L24.0479 17.6475C22.7063 17.511 21.6594 16.3775 21.6592 15C21.6592 13.5303 22.8506 12.3389 24.3203 12.3389L24.5928 12.3525C24.7164 12.3651 24.837 12.3881 24.9551 12.417C24.5637 12.2192 24.1227 12.1055 23.6543 12.1055ZM24.3203 12.9902C23.2103 12.9902 22.3106 13.8899 22.3105 15C22.3108 16.1099 23.2104 17.0098 24.3203 17.0098C24.6799 17.0098 25.0166 16.9134 25.3086 16.748C25.204 16.7672 25.0964 16.7783 24.9863 16.7783L24.8037 16.7695C23.9662 16.6844 23.2999 16.0183 23.2148 15.1807L23.2061 14.999C23.2061 14.016 24.0034 13.2188 24.9863 13.2188L25.168 13.2275C25.2135 13.2322 25.2583 13.2391 25.3027 13.2471C25.0121 13.0838 24.6774 12.9902 24.3203 12.9902ZM24.9863 13.8701C24.363 13.8701 23.8574 14.3757 23.8574 14.999C23.8577 15.6222 24.3631 16.127 24.9863 16.127C25.2425 16.1269 25.4777 16.0403 25.667 15.8965C25.6618 15.8966 25.6566 15.8975 25.6514 15.8975C25.1552 15.8974 24.7529 15.4952 24.7529 14.999C24.753 14.5028 25.1552 14.1006 25.6514 14.1006C25.6569 14.1006 25.6624 14.1005 25.668 14.1006C25.4786 13.9564 25.2427 13.8702 24.9863 13.8701ZM25.6514 14.752C25.5148 14.752 25.4043 14.8625 25.4043 14.999C25.4043 15.1356 25.5148 15.2461 25.6514 15.2461C25.788 15.2461 25.8984 15.1356 25.8984 14.999C25.8984 14.8624 25.7879 14.752 25.6514 14.752Z" fill="white"/>
</svg>
